<?xml version="1.0" encoding="UTF-8"?>
<svg id="Layer_1" data-name="Layer 1" xmlns="http://www.w3.org/2000/svg" viewBox="0 0 585.56 720.41">
  <defs>
    <style>
      .cls-1 {
        fill: #fff;
      }
    </style>
  </defs>
  <path d="M477.27,719.39c-20.7,0-41.42-.6-62.09,.12-49.3,1.72-98.6,.37-147.89,.75-26.89,.2-53.78-.63-80.67-.71-20.32-.06-40.65,.38-60.97,.49-2.1,.01-4.3-.39-6.25-1.13-1.14-.43-2.66-1.99-2.58-2.92,.1-1.2,1.58-2.33,2.56-3.41,.33-.36,.97-.64,1.45-.62,10.88,.36,21.58-2.97,32.52-1.64,1.61,.19,3.32-.44,4.99-.65,2.83-.37,5.66-.82,8.5-1.02,2.14-.15,4.33,.24,6.47,.04,6.96-.65,13.9-1.62,20.87-2.16,5.1-.39,10.23-.18,15.34-.42,5.54-.26,11.07-.74,16.61-1.11,5.65-.38,11.29-.97,16.94-1.09,8.72-.18,17.46-.11,26.18,0,3.67,.05,5.86-2.27,8.29-4.41,4.02-3.56,8.12-7.02,12.22-10.49,.89-.75,1.96-1.28,2.9-1.97,4.28-3.15,4.53-4.88,3.11-9.94-.98-3.49-1.31-7.25-1.34-10.89-.05-5.6-.6-11.03-1.78-16.55-1.05-4.93-.51-10.18-.78-15.29-.1-1.95-.43-3.88-.75-5.81-.48-2.9-1.26-5.76-1.52-8.67-.58-6.62-.89-13.25-1.38-19.88-.29-3.85-.72-7.68-1.09-11.52-.58-5.96-1.11-11.93-1.76-17.89-.24-2.23-1.86-3.11-3.91-3.46-6.35-1.1-7.53-2.73-7.64-9.09-.15-8.62-.52-17.24-.97-25.85-.12-2.34,.28-4.16,2.02-5.82,2.18-2.08,1.8-3.59-1.01-4.88-.98-.45-2.02-.77-3.01-1.2-3.01-1.33-4.61-3.54-4.52-6.95,.12-4.68,.03-9.36,.2-14.04,.08-2.14,.23-4.38,.91-6.38,1.63-4.79,1.84-9.65,1.84-14.64,0-8,.04-16.03,.61-24,.36-5.08,1.78-10.08,2.59-15.13,.6-3.79,.87-7.64,1.51-11.43,.43-2.56,1.37-5.04,1.78-7.61,.15-.94-.59-2.03-.93-3.05-.99,.39-2.2,.55-2.93,1.23-2.23,2.08-4.27,4.35-6.37,6.55-2.39,2.51-5.21,2.72-8.15,1.27-5.07-2.51-10.14-5.04-15.1-7.78-8.32-4.59-16.56-9.34-24.83-14.01-5.63-3.18-11.25-6.36-16.9-9.48-1.24-.68-2.59-1.21-3.95-1.63-4.38-1.34-9.12-1.93-13.1-4.02-6.31-3.31-12.99-6.48-17.33-12.49-3.35-4.63-6.41-9.51-9.22-14.49-1.09-1.94-1.33-4.43-1.64-6.72-.26-1.89-.09-4.21,2.05-4.79,1.83-.49,4.33-.63,5.84,.27,4.15,2.47,7.94,5.55,11.86,8.4,.58,.42,1.08,1.15,1.71,1.27,1.23,.23,2.8,.58,3.68,.02,.73-.46,1.16-2.31,.87-3.29-.74-2.52-1.79-5.16,1.01-6.75,2.62-1.49,4.62,.81,6.33,2.37,5.43,4.94,10.75,9.84,14.55,16.43,4.11,7.11,11.02,11.71,18.03,15.89,5.31,3.17,10.55,6.47,15.94,9.52,3.66,2.07,7.47,3.9,11.3,5.64,2.55,1.16,5.05,.78,7.35-1.03,2.96-2.32,6.05-4.46,9.02-6.76,1.51-1.17,1.46-2.57,.11-3.91-.13-.13-.28-.23-.43-.32-7.17-3.9-5.05-7.29,1.11-10.44,4.44-2.27,8.06-5.12,10.3-9.47,1.06-2.07,1.93-4.51,1.97-6.8,.17-8.9,5.47-14.79,13.01-18.17,4.52-2.02,8.05,.01,11.58,2.78,2.78,2.18,5.83,4.21,9.07,5.5,1.66,.66,4.1-.19,6.04-.81,1.29-.41,2.32-1.64,3.48-2.49,3.93-2.88,7.77-1.58,11.63,.22,4.79,2.24,9.61,4.41,14.39,6.66,4.45,2.1,8.87,4.27,13.29,6.44,2.65,1.3,3.4,3.69,3.79,6.42,.44,3.09,1.21,6.14,1.79,9.21,.61,3.24,1.14,6.5,1.77,9.74,1.19,6.13,2.41,12.26,3.64,18.38,.67,3.34,1.4,6.67,2.1,10.01,1.19,5.75-1.27,8.24-6.51,9.51-4.32,1.04-8.57,1.52-12.9,1.89-1.33,.11-2.69,.11-4.01-.07-2.89-.39-4.14,.43-4.08,3.41,.13,6.64,.37,13.28,.78,19.91,.6,9.87,1.54,19.72,2.03,29.59,.54,10.95,.7,21.91,1.09,32.87,.08,2.24,.4,4.48,.69,6.71,.37,2.87-.24,5.36-2.53,7.29-1.89,1.6-1.45,3.12-.46,5.22,2.13,4.5,4.47,9.09,5.43,13.91,1.46,7.27,1.83,14.77,2.65,22.17,.49,4.42-1.83,7.05-6.31,7.15-1.35,.03-2.71-.15-4.04-.02-2.51,.26-3.41,1.66-2.8,4.14,1.37,5.57,2.36,11.28,4.24,16.68,2.23,6.42,2.65,13.14,4.24,19.65,2.82,11.6,5.48,23.23,8.14,34.87,.84,3.68,1.38,7.44,2.25,11.11,1.47,6.17,3.11,12.3,4.66,18.45,.22,.87,.6,1.78,.5,2.63-.44,4.04,1.7,6.64,4.7,8.79,1.61,1.15,3.34,2.14,4.9,3.34,2.47,1.91,4.93,3.86,7.24,5.95,2.16,1.95,4.44,3.1,7.48,3.1,13.31,0,26.63,.13,39.94,.3,2.14,.03,4.27,.63,6.42,.78,6.34,.43,12.7,1.21,19.02,1,7.8-.26,15.42,.71,23.1,1.64,5.69,.69,11.46,.66,17.19,1.11,3.28,.26,6.52,.86,9.79,1.27,1.33,.16,2.67,.23,4,.29,6.72,.34,13.44,.66,20.15,1.01,3.68,.19,7.35,.47,11.03,.63,3.25,.13,6.25,1.99,6.27,4.01,.02,1.87-2.85,3.87-6.01,4.08-1.7,.12-3.42,.1-5.13,.06-10.61-.27-21.22-.66-31.83-.83-9.17-.14-18.35-.03-27.53-.03v.19Zm-165.49-35.64c0,4.22-.19,7.74,.05,11.23,.25,3.68,2.21,5.41,5.28,5.04,9.62-1.17,19.17-.97,28.71,.87,1.84,.35,3.95,0,5.77-.57,.88-.28,2.05-1.96,1.9-2.8-.55-3.13-1.59-6.18-2.45-9.25-.75-2.67-1.62-5.31-2.25-8.01-1.67-7.16-3.21-14.35-4.87-21.52-.91-3.92-2.02-7.79-2.93-11.71-1.31-5.68-2.43-11.41-3.78-17.09-1.1-4.61-2.55-9.13-3.64-13.75-1.39-5.91-2.55-11.88-3.84-17.82-1.37-6.3-2.84-12.57-4.14-18.88-.66-3.2-2.44-5.31-5.57-5.78-4.67-.71-7.31-2.93-7.59-7.86-.12-2.21-2.1-2.9-3.65-1.6-1.43,1.2-2.99,2.27-4.3,3.59-.9,.9-2.02,2.08-2.11,3.2-.24,3.03-.4,6.18,.18,9.13,1.42,7.28,2.13,14.57,1.9,21.98-.07,2.33-.24,4.78,.34,6.99,3.06,11.69,1.12,23.83,3.48,35.6,1.03,5.14,.44,10.59,.92,15.87,.73,7.94,1.76,15.86,2.58,23.14Z"/>
  <path d="M268.94,301.37c.87-3.44,1.39-7.46,2.91-11.04,2.23-5.26,1.41-10.17,.42-15.51-1.41-7.59-3.87-15.35-1.23-23.13,1.52-4.48,3.78-8.71,5.64-13.09,.91-2.14,1.67-4.35,2.47-6.54,.5-1.35,.78-2.8,1.45-4.04,1.78-3.3,4.34-3.32,6.3-.16,3.37,5.43,3.34,5.38,9.06,2.18,6.83-3.81,13.75-7.45,21.67-8.49,.18-.02,.37-.05,.52-.13,6.7-3.51,13.97-2.68,21.13-2.87,2.43-.07,4.89-.86,7.24-1.65,2.5-.84,4.49-.66,6.27,1.46,1.73,2.07,.57,3.62-.6,5.29-1.03,1.47-2.1,2.93-2.97,4.49-1.69,3.05-.74,4.75,2.73,5.14,1.34,.15,2.68,.32,4.02,.46,11.02,1.12,19.86,6.2,27.01,14.57,4.5,5.28,9.54,9.98,15.48,13.69,1.82,1.14,3.93,2.57,3.1,5.4-.73,2.5-2.63,3.4-5.06,3.75-1.49,.21-2.94,.78-4.39,1.25-2.63,.86-5.21,1.87-7.87,2.61-2.93,.81-3.48,1.85-2.46,4.68,.57,1.57,1.02,3.27,1.1,4.92,.58,12.25-5.27,21.28-14.52,28.55-.57,.44-1.11,.95-1.75,1.26-3.59,1.76-5.16,4.59-5.31,8.61-.14,3.57-2.35,6.08-5.36,7.92-4.72,2.88-9.78,4.6-15.34,4.25-5.08-.32-9.66,1.42-13.92,3.65-2.42,1.27-4.44,3.68-6.07,5.98-3,4.25-9.58,4.19-13.26,.52-4-3.99-8.17-7.85-12.56-11.39-2.69-2.17-5.84-3.84-8.97-5.36-8.26-4-13.3-10.43-15.25-19.35-.54-2.45-1.03-4.92-1.65-7.9Z"/>
  <path d="M146.31,255.92c3.24,.65,5.36-1.15,6.65-4,2.4-5.32,4.61-10.72,6.96-16.06,.79-1.8,1.63-3.61,2.71-5.23,2.66-3.97,6.7-3.63,8.79,.71,1.37,2.83,2.62,5.72,3.87,8.61,1.68,3.86,3.37,7.72,4.95,11.63,1.21,2.97,3.49,4.06,6.5,4.41,7.48,.88,14.96,1.75,22.4,2.91,4.69,.74,6.14,4.41,2.98,7.93-3.35,3.73-7.26,6.95-10.95,10.36-2.57,2.38-5.35,4.56-7.7,7.13-.93,1.02-1.49,2.96-1.29,4.34,.47,3.25,1.51,6.41,2.32,9.61,.99,3.91,2.05,7.8,2.92,11.74,.32,1.46,.5,3.08,.22,4.53-.66,3.34-4.42,4.86-7.46,3.09-6.83-3.98-13.64-7.97-20.4-12.07-2.16-1.31-4.04-1.51-6.25-.1-5.38,3.42-10.84,6.7-16.29,10.01-1.23,.75-2.48,1.46-3.78,2.08-2.05,.97-4.09,1.43-6-.38-2.09-1.98-2.56-4.49-1.81-7.12,1.69-5.92,2.7-12.08,4.87-17.8,1.93-5.08,.17-7.95-3.58-10.98-4.94-4-9.49-8.48-14.22-12.74-1.78-1.6-3.65-3.33-2.92-5.94,.71-2.55,2.76-3.72,5.48-4.02,6.95-.77,13.88-1.71,21.01-2.61Z"/>
  <path d="M297.37,32.03c-.75,17.34-14.7,31.68-32.09,31.83-16.04,.14-31.46-13.66-31.48-32.02C233.79,12.29,249.89-.15,265.54,0c18.72,.18,31.36,15.95,31.83,32.02Z"/>
  <path d="M371.64,447.91c.47,8.07,.9,16.15,1.41,24.22,.33,5.09,1.42,10.23,1.01,15.26-.56,6.92,0,13.51,1.92,20.16,1.58,5.48,2.37,11.18,3.67,16.75,.36,1.54,1.12,3.04,1.98,4.38,2.73,4.29,2.32,9.72-1.19,13.43-2.72,2.87-5.45,5.73-8.21,8.57-2.56,2.64-6.03,2.5-8.1-.5-2.29-3.31-4.65-6.64-6.46-10.22-2.86-5.66-1.85-11.51-.2-17.36,.77-2.71,1.14-5.57,1.41-8.39,.33-3.48,.48-7,.49-10.5,.02-3.49-.27-6.98-.34-10.47-.11-5.75-.7-11.35-2.08-17.04-1.62-6.67-1.82-13.69-2.63-20.55-.14-1.16,.05-2.49-.46-3.45-2.6-4.84-1.87-10.13-2.26-15.26-.25-3.29,1.34-4.91,4.65-5.33,2.01-.26,3.95-.98,5.94-1.44,1.56-.36,3.15-.88,4.72-.89,3.59-.03,5.15,1.83,5.09,5.43-.07,4.4-.02,8.81-.02,13.21-.11,0-.23,0-.34,0Z"/>
  <path d="M476.72,351.04c.12-11.54,9.6-20.9,20.43-21.47,12.4-.65,22.88,12.98,22.43,21.74-.75,14.49-11.59,21.92-21.59,22.35-9.23,.4-22.73-8.19-21.28-22.63Z"/>
  <path d="M422.3,171.24c-9.9,1.5-20.17-9.9-20.07-20.71,.1-10.91,11.51-20.81,21.36-20.15,10.61,.71,19.71,10.53,19.62,22.25-.06,8.21-9.4,19.97-20.91,18.61Z"/>
  <path d="M15.12,256.68c-9.54,.31-14.78-7.78-15.11-14.15-.39-7.71,8.45-15.26,15.41-15.33,6.73-.07,14.63,8.03,14.71,14.87,.08,7.52-7.19,14.6-15.01,14.61Z"/>
  <path d="M537.65,185.83c0,5.46-5.5,11.43-10.51,11.4-4.6-.03-11.47-6.75-11.54-11.29-.07-4.65,6.19-10.71,11.13-10.77,5.18-.07,10.92,5.54,10.92,10.67Z"/>
  <path d="M585.56,20c-.1,3.49-6.41,9.2-10.15,9.18-4.05-.02-9.9-5.48-9.74-9.1,.19-4.26,6.14-9.46,10.7-9.35,3.72,.09,9.29,5.71,9.19,9.27Z"/>
  <path d="M80.66,368.97c-3.97-.07-7.66-3.93-7.61-7.98,.04-3.71,4.22-8.25,7.59-8.24,3.85,.01,8.21,4.62,8.19,8.66-.02,3.63-4.34,7.62-8.17,7.56Z"/>
  <path d="M120.36,109.49c4.19,0,8.37,3.82,8.3,7.59-.07,4.08-4.68,7.44-10.1,7.36-2.84-.04-6.1-3.79-6.17-7.08-.08-3.91,3.94-7.88,7.97-7.88Z"/>
  <path d="M70.44,22.16c2.85,0,5.4,2.6,5.48,5.57,.07,2.77-2.57,5.31-5.61,5.4-2.47,.07-6.3-3.19-6.3-5.37,0-2.27,3.81-5.61,6.43-5.61Z"/>
  <path class="cls-1" d="M311.78,683.75c-.83-7.27-1.85-15.19-2.58-23.14-.48-5.28,.11-10.73-.92-15.87-2.37-11.78-.43-23.92-3.48-35.6-.58-2.21-.42-4.66-.34-6.99,.23-7.41-.48-14.7-1.9-21.98-.58-2.95-.42-6.1-.18-9.13,.09-1.13,1.21-2.3,2.11-3.2,1.32-1.31,2.87-2.39,4.3-3.59,1.55-1.3,3.53-.61,3.65,1.6,.28,4.94,2.92,7.15,7.59,7.86,3.13,.48,4.92,2.59,5.57,5.78,1.29,6.31,2.77,12.59,4.14,18.88,1.29,5.94,2.45,11.9,3.84,17.82,1.08,4.61,2.54,9.14,3.64,13.75,1.36,5.67,2.47,11.4,3.78,17.09,.9,3.92,2.02,7.79,2.93,11.71,1.66,7.16,3.2,14.36,4.87,21.52,.63,2.7,1.5,5.34,2.25,8.01,.86,3.07,1.9,6.12,2.45,9.25,.15,.84-1.02,2.51-1.9,2.8-1.81,.58-3.93,.93-5.77,.57-9.54-1.84-19.09-2.03-28.71-.87-3.07,.37-5.03-1.37-5.28-5.04-.24-3.49-.05-7.01-.05-11.23Z"/>
</svg>